<?xml version="1.0" standalone="no"?><!-- Generator: Gravit.io --><svg xmlns="http://www.w3.org/2000/svg" xmlns:xlink="http://www.w3.org/1999/xlink" style="isolation:isolate" viewBox="0 0 256 256" width="256" height="256"><defs><clipPath id="_clipPath_yt0lGkRTMCcY8NJqsZ9Nih9RLPGIzSRt"><rect width="256" height="256"/></clipPath></defs><g clip-path="url(#_clipPath_yt0lGkRTMCcY8NJqsZ9Nih9RLPGIzSRt)"><path id="test" d=" M 68.718 150.945 C 69.503 149.116 68.666 146.997 66.844 146.198 L 53.413 140.326 L 60.535 124.334 C 61.345 122.523 60.534 120.397 58.723 119.586 C 56.912 118.776 54.786 119.587 53.976 121.398 L 45.355 140.7 C 44.98 141.575 44.918 142.574 45.293 143.511 C 45.668 144.386 46.355 145.136 47.229 145.51 L 64.033 152.819 C 64.533 153.006 64.97 153.131 65.47 153.131 C 66.781 153.131 68.093 152.319 68.718 150.945 L 68.718 150.945 Z  M 243.002 85.979 L 129.124 50.685 C 128.39 50.466 127.609 50.466 126.875 50.685 L 13.06 85.917 C 9.749 86.916 7.5 89.977 7.5 93.475 C 7.5 96.973 9.749 99.972 13.122 100.971 L 64.595 116.401 C 66.532 116.963 68.531 115.901 69.093 113.964 C 69.655 112.028 68.593 110.029 66.657 109.467 L 15.183 94.1 C 15.059 94.037 14.746 93.975 14.746 93.475 C 14.746 93.038 15.059 92.913 15.183 92.85 L 127.999 57.931 L 240.815 92.85 C 240.94 92.913 241.253 92.975 241.253 93.475 C 241.253 93.912 240.94 94.037 240.815 94.1 L 193.403 108.405 C 193.215 108.405 193.028 108.405 192.84 108.467 L 127.999 128.02 L 86.396 115.589 L 86.271 115.526 L 85.959 115.526 C 84.647 115.276 83.273 115.714 82.461 116.713 C 82.398 116.838 82.336 116.963 82.273 117.025 C 82.086 117.338 81.899 117.588 81.774 117.962 C 81.711 118.087 81.774 118.275 81.711 118.4 C 81.649 118.712 81.586 119.024 81.649 119.337 C 81.649 119.586 81.774 119.774 81.836 120.024 L 82.023 120.711 C 82.148 120.898 82.336 121.023 82.461 121.211 C 82.586 121.398 82.711 121.585 82.898 121.773 C 83.023 121.898 83.21 121.898 83.335 122.023 C 83.585 122.21 83.835 122.335 84.147 122.46 L 126.188 135.141 C 126.5 135.266 126.875 135.266 127.25 135.266 L 128.687 135.266 C 129.061 135.266 129.374 135.203 129.748 135.141 L 191.966 116.401 L 202.648 140.326 L 127.999 172.871 L 83.773 153.569 C 81.961 152.757 79.837 153.631 79.025 155.443 C 78.213 157.254 79.087 159.378 80.899 160.19 L 126.188 179.93 C 126.625 180.117 127.125 180.242 127.625 180.242 L 128.312 180.242 C 128.811 180.242 129.311 180.117 129.748 179.93 L 208.832 145.448 C 209.707 145.073 210.394 144.324 210.768 143.449 C 211.143 142.574 211.081 141.575 210.706 140.638 L 198.9 114.214 L 242.877 100.971 C 246.187 99.972 248.436 96.973 248.499 93.475 C 248.561 90.039 246.312 87.041 243.002 85.979 Z  M 78.65 176.682 L 75.589 176.682 L 75.589 118.649 C 75.589 117.4 76.339 116.276 77.463 115.838 L 123.252 97.286 C 125.133 99.91 128.497 101.015 131.568 100.015 C 134.638 99.015 136.707 96.142 136.682 92.913 C 136.682 88.79 133.372 85.479 129.249 85.479 C 125.126 85.479 121.815 88.79 121.815 92.913 C 121.815 93.288 121.878 93.6 121.94 93.912 L 76.152 112.465 C 73.653 113.465 72.029 115.901 72.029 118.649 L 72.029 176.682 L 68.968 176.682 L 68.968 187.488 L 69.03 187.488 L 65.532 204.417 C 65.407 204.917 65.719 205.417 66.219 205.479 L 66.407 205.479 C 66.844 205.479 67.219 205.167 67.281 204.729 L 70.842 187.426 L 71.029 187.426 L 68.905 204.417 C 68.843 204.917 69.218 205.354 69.717 205.417 L 69.842 205.417 C 70.28 205.417 70.654 205.104 70.717 204.604 L 72.903 187.426 L 73.028 187.426 L 71.904 204.542 C 71.841 205.042 72.279 205.479 72.716 205.479 L 72.778 205.479 C 73.278 205.479 73.653 205.104 73.653 204.604 L 73.903 200.919 L 74.153 204.604 C 74.215 205.104 74.59 205.479 75.027 205.479 L 75.09 205.479 C 75.589 205.417 75.964 205.042 75.902 204.542 L 74.777 187.426 L 74.902 187.426 L 77.089 204.604 C 77.151 205.042 77.526 205.417 77.963 205.417 L 78.088 205.417 C 78.588 205.354 78.963 204.917 78.9 204.417 L 76.776 187.426 L 76.964 187.426 L 80.524 204.729 C 80.587 205.167 80.962 205.479 81.399 205.479 L 81.586 205.479 C 82.086 205.354 82.398 204.917 82.273 204.417 L 78.713 187.176 L 78.713 176.682 L 78.65 176.682 L 78.65 176.682 Z " fill="rgb(34,203,233)"/></g></svg>